<svg width="1200" height="380" viewBox="0 0 1200 380" xmlns="http://www.w3.org/2000/svg">
  <defs>
    <linearGradient id="bg" x1="0%" y1="0%" x2="100%" y2="100%">
      <stop offset="0%" stop-color="#0d1117"/>
      <stop offset="55%" stop-color="#161b2e"/>
      <stop offset="100%" stop-color="#2b1030"/>
    </linearGradient>
    <linearGradient id="accent" x1="0%" y1="0%" x2="100%" y2="0%">
      <stop offset="0%" stop-color="#FF39A9"/>
      <stop offset="100%" stop-color="#7C3AED"/>
    </linearGradient>
    <radialGradient id="glow" cx="50%" cy="50%" r="50%">
      <stop offset="0%" stop-color="#FF39A9" stop-opacity="0.25"/>
      <stop offset="100%" stop-color="#FF39A9" stop-opacity="0"/>
    </radialGradient>
  </defs>

  <!-- Background -->
  <rect width="1200" height="380" fill="url(#bg)"/>
  <circle cx="1030" cy="90" r="220" fill="url(#glow)"/>
  <circle cx="120" cy="330" r="180" fill="url(#glow)"/>

  <!-- Subtle grid lines -->
  <g stroke="#ffffff" stroke-opacity="0.04">
    <line x1="0" y1="95" x2="1200" y2="95"/>
    <line x1="0" y1="190" x2="1200" y2="190"/>
    <line x1="0" y1="285" x2="1200" y2="285"/>
  </g>

  <!-- Accent bar -->
  <rect x="70" y="88" width="6" height="110" fill="url(#accent)" rx="3"/>

  <!-- Name -->
  <text x="96" y="140" font-family="Segoe UI, Helvetica, Arial, sans-serif" font-size="56" font-weight="700" fill="#f0f3f9">
    Karan Gattani
  </text>

  <!-- Role -->
  <text x="98" y="180" font-family="Segoe UI, Helvetica, Arial, sans-serif" font-size="24" font-weight="500" fill="#FF39A9">
    Business Analyst &#8226; AI Automation &#8226; CRM &#8226; SaaS
  </text>

  <!-- Tagline -->
  <text x="98" y="212" font-family="Segoe UI, Helvetica, Arial, sans-serif" font-size="16" fill="#9aa4b8">
    Requirements Engineering &#183; Stakeholder Management &#183; Agile Delivery
  </text>

  <!-- Skill pills -->
  <g font-family="Segoe UI, Helvetica, Arial, sans-serif" font-size="15" font-weight="600">
    <!-- Row 1 -->
    <g>
      <rect x="98" y="240" width="90" height="34" rx="17" fill="#ffffff" fill-opacity="0.06" stroke="#FF39A9" stroke-opacity="0.5"/>
      <text x="143" y="262" fill="#e8ebf3" text-anchor="middle">BRDs</text>
    </g>
    <g>
      <rect x="198" y="240" width="90" height="34" rx="17" fill="#ffffff" fill-opacity="0.06" stroke="#FF39A9" stroke-opacity="0.5"/>
      <text x="243" y="262" fill="#e8ebf3" text-anchor="middle">FRDs</text>
    </g>
    <g>
      <rect x="298" y="240" width="110" height="34" rx="17" fill="#ffffff" fill-opacity="0.06" stroke="#FF39A9" stroke-opacity="0.5"/>
      <text x="353" y="262" fill="#e8ebf3" text-anchor="middle">Agile / Scrum</text>
    </g>
    <g>
      <rect x="418" y="240" width="70" height="34" rx="17" fill="#ffffff" fill-opacity="0.06" stroke="#FF39A9" stroke-opacity="0.5"/>
      <text x="453" y="262" fill="#e8ebf3" text-anchor="middle">Jira</text>
    </g>
    <g>
      <rect x="498" y="240" width="100" height="34" rx="17" fill="#ffffff" fill-opacity="0.06" stroke="#FF39A9" stroke-opacity="0.5"/>
      <text x="548" y="262" fill="#e8ebf3" text-anchor="middle">Postman</text>
    </g>
    <g>
      <rect x="608" y="240" width="82" height="34" rx="17" fill="#ffffff" fill-opacity="0.06" stroke="#FF39A9" stroke-opacity="0.5"/>
      <text x="649" y="262" fill="#e8ebf3" text-anchor="middle">Figma</text>
    </g>
    <g>
      <rect x="700" y="240" width="70" height="34" rx="17" fill="#ffffff" fill-opacity="0.06" stroke="#FF39A9" stroke-opacity="0.5"/>
      <text x="735" y="262" fill="#e8ebf3" text-anchor="middle">SQL</text>
    </g>
    <g>
      <rect x="780" y="240" width="110" height="34" rx="17" fill="#ffffff" fill-opacity="0.06" stroke="#FF39A9" stroke-opacity="0.5"/>
      <text x="835" y="262" fill="#e8ebf3" text-anchor="middle">Power BI</text>
    </g>
    <g>
      <rect x="900" y="240" width="90" height="34" rx="17" fill="#ffffff" fill-opacity="0.06" stroke="#FF39A9" stroke-opacity="0.5"/>
      <text x="945" y="262" fill="#e8ebf3" text-anchor="middle">CRM</text>
    </g>
    <g>
      <rect x="1000" y="240" width="102" height="34" rx="17" fill="#ffffff" fill-opacity="0.06" stroke="#FF39A9" stroke-opacity="0.5"/>
      <text x="1051" y="262" fill="#e8ebf3" text-anchor="middle">SaaS</text>
    </g>
  </g>

  <!-- Bottom divider text -->
  <text x="98" y="330" font-family="Segoe UI, Helvetica, Arial, sans-serif" font-size="14" fill="#6b7385">
    github.com/Karan2007May &#183; karangattani07@gmail.com
  </text>
</svg>
